REM DIRINDEX 1\5,1\2\6,1\2\7,1\3\8,1\3\9,1\4\10,1\4\11,1\4\12
REM DIRNAME folder01,folder02,folder03,folder04,folder05,folder06,folder07,folder08,folder09,folder10,folder11,folder12
TITLE ""
FILE "EJE_DB3000_5th_5C_09.mp3" MP3
  TRACK 01 AUDIO
    TITLE "0:"
    INDEX 01 00:00:00
  TRACK 02 AUDIO
    TITLE "10:cjc026_10446"
    INDEX 01 00:00:05
  TRACK 03 AUDIO
    TITLE "0:"
    INDEX 01 00:01:05
  TRACK 04 AUDIO
    TITLE "11:cjc026_10447"
    INDEX 01 00:01:32
  TRACK 05 AUDIO
    TITLE "0:"
    INDEX 01 00:02:38
  TRACK 06 AUDIO
    TITLE "12:cjc026_10448"
    INDEX 01 00:02:63
  TRACK 07 AUDIO
    TITLE "0:"
    INDEX 01 00:03:63
  TRACK 08 AUDIO
    TITLE "10:cjc026_10449"
    INDEX 01 00:04:15
  TRACK 09 AUDIO
    TITLE "0:"
    INDEX 01 00:05:14
  TRACK 10 AUDIO
    TITLE "11:cjc026_10450"
    INDEX 01 00:05:42
  TRACK 11 AUDIO
    TITLE "0:"
    INDEX 01 00:06:55
  TRACK 12 AUDIO
    TITLE "12:cjc026_10451"
    INDEX 01 00:07:07
  TRACK 13 AUDIO
    TITLE "0:"
    INDEX 01 00:08:07
  TRACK 14 AUDIO
    TITLE "10:cjc026_10452"
    INDEX 01 00:08:34
  TRACK 15 AUDIO
    TITLE "0:"
    INDEX 01 00:09:34
  TRACK 16 AUDIO
    TITLE "11:cjc026_10453"
    INDEX 01 00:09:61
  TRACK 17 AUDIO
    TITLE "0:"
    INDEX 01 00:10:61
  TRACK 18 AUDIO
    TITLE "12:cjc026_10454"
    INDEX 01 00:11:11
  TRACK 19 AUDIO
    TITLE "0:"
    INDEX 01 00:12:12
  TRACK 20 AUDIO
    TITLE "10:cjc026_10455"
    INDEX 01 00:12:40
  TRACK 21 AUDIO
    TITLE "0:"
    INDEX 01 00:13:37
  TRACK 22 AUDIO
    TITLE "11:cjc026_10456"
    INDEX 01 00:13:65
  TRACK 23 AUDIO
    TITLE "0:"
    INDEX 01 00:14:62
  TRACK 24 AUDIO
    TITLE "12:cjc026_10457"
    INDEX 01 00:15:13
  TRACK 25 AUDIO
    TITLE "0:"
    INDEX 01 00:16:10
  TRACK 26 AUDIO
    TITLE "10:cjc026_10458"
    INDEX 01 00:16:38
  TRACK 27 AUDIO
    TITLE "0:"
    INDEX 01 00:17:31
  TRACK 28 AUDIO
    TITLE "11:cjc026_10459"
    INDEX 01 00:17:57
  TRACK 29 AUDIO
    TITLE "0:"
    INDEX 01 00:18:60
  TRACK 30 AUDIO
    TITLE "12:cjc026_10460"
    INDEX 01 00:19:11
  TRACK 31 AUDIO
    TITLE "0:"
    INDEX 01 00:20:04
  TRACK 32 AUDIO
    TITLE "10:cjc026_10461"
    INDEX 01 00:20:30
  TRACK 33 AUDIO
    TITLE "0:"
    INDEX 01 00:21:27
  TRACK 34 AUDIO
    TITLE "11:cjc026_10462"
    INDEX 01 00:21:53
  TRACK 35 AUDIO
    TITLE "0:"
    INDEX 01 00:22:64
  TRACK 36 AUDIO
    TITLE "12:cjc026_10463"
    INDEX 01 00:23:14
  TRACK 37 AUDIO
    TITLE "0:"
    INDEX 01 00:24:12
  TRACK 38 AUDIO
    TITLE "10:cjc026_10464"
    INDEX 01 00:24:39
  TRACK 39 AUDIO
    TITLE "0:"
    INDEX 01 00:25:41
  TRACK 40 AUDIO
    TITLE "11:cjc026_10465"
    INDEX 01 00:25:66
  TRACK 41 AUDIO
    TITLE "0:"
    INDEX 01 00:26:67
  TRACK 42 AUDIO
    TITLE "12:cjc026_10466"
    INDEX 01 00:27:22
  TRACK 43 AUDIO
    TITLE "0:"
    INDEX 01 00:28:21
  TRACK 44 AUDIO
    TITLE "10:cjc026_10467"
    INDEX 01 00:28:49
  TRACK 45 AUDIO
    TITLE "0:"
    INDEX 01 00:29:36
  TRACK 46 AUDIO
    TITLE "11:cjc026_10468"
    INDEX 01 00:29:62
  TRACK 47 AUDIO
    TITLE "0:"
    INDEX 01 00:30:52
  TRACK 48 AUDIO
    TITLE "12:cjc026_10469"
    INDEX 01 00:31:02
  TRACK 49 AUDIO
    TITLE "0:"
    INDEX 01 00:31:65
  TRACK 50 AUDIO
    TITLE "10:cjc026_10470"
    INDEX 01 00:32:15
  TRACK 51 AUDIO
    TITLE "0:"
    INDEX 01 00:33:07
  TRACK 52 AUDIO
    TITLE "11:cjc026_10471"
    INDEX 01 00:33:34
  TRACK 53 AUDIO
    TITLE "0:"
    INDEX 01 00:34:32
  TRACK 54 AUDIO
    TITLE "12:cjc026_10472"
    INDEX 01 00:34:57
  TRACK 55 AUDIO
    TITLE "0:"
    INDEX 01 00:35:49
  TRACK 56 AUDIO
    TITLE "10:cjc026_10473"
    INDEX 01 00:36:01
  TRACK 57 AUDIO
    TITLE "0:"
    INDEX 01 00:36:68
  TRACK 58 AUDIO
    TITLE "11:cjc026_10474"
    INDEX 01 00:37:18
  TRACK 59 AUDIO
    TITLE "0:"
    INDEX 01 00:38:14
  TRACK 60 AUDIO
    TITLE "12:cjc026_10475"
    INDEX 01 00:38:39
  TRACK 61 AUDIO
    TITLE "0:"
    INDEX 01 00:39:31
  TRACK 62 AUDIO
    TITLE "10:cjc026_10476"
    INDEX 01 00:39:58
  TRACK 63 AUDIO
    TITLE "0:"
    INDEX 01 00:40:50
  TRACK 64 AUDIO
    TITLE "11:cjc026_10477"
    INDEX 01 00:41:02
  TRACK 65 AUDIO
    TITLE "0:"
    INDEX 01 00:42:00
  TRACK 66 AUDIO
    TITLE "12:cjc026_10478"
    INDEX 01 00:42:27
  TRACK 67 AUDIO
    TITLE "0:"
    INDEX 01 00:43:21
  TRACK 68 AUDIO
    TITLE "10:cjc026_10479"
    INDEX 01 00:43:48
  TRACK 69 AUDIO
    TITLE "0:"
    INDEX 01 00:44:32
  TRACK 70 AUDIO
    TITLE "11:cjc026_10480"
    INDEX 01 00:44:60
  TRACK 71 AUDIO
    TITLE "0:"
    INDEX 01 00:46:31
  TRACK 72 AUDIO
    TITLE "12:cjc026_10481"
    INDEX 01 00:46:58
  TRACK 73 AUDIO
    TITLE "0:"
    INDEX 01 00:47:42
  TRACK 74 AUDIO
    TITLE "10:cjc026_10482"
    INDEX 01 00:47:68
  TRACK 75 AUDIO
    TITLE "0:"
    INDEX 01 00:48:71
  TRACK 76 AUDIO
    TITLE "11:cjc026_10483"
    INDEX 01 00:49:20
  TRACK 77 AUDIO
    TITLE "0:"
    INDEX 01 00:50:11
  TRACK 78 AUDIO
    TITLE "12:cjc026_10484"
    INDEX 01 00:50:33
  TRACK 79 AUDIO
    TITLE "0:"
    INDEX 01 00:51:36
